# xmcd
#
# Track frame offsets:
#	150
#	8917
#	19002
#	29672
#	42295
#	51462
#	59245
#	69787
#	79450
#	89660
#	99350
#	110787
#	122527
#	133360
#	143635
#	152987
#	164045
#	172845
#	181482
#	189335
#
# Disc length: 2657 seconds
#
# Revision: 1
# Processed by: cddbd v1.4PL0 Copyright (c) Steve Scherf et al.
# Submitted via: audiograbber 1.81.02
#
DISCID=240a5f14
DTITLE=The Spotnicks - The Spotnicks In Berlin
DYEAR=1964
DGENRE=Folk-Rock
TTITLE0=I Gotta Baby
TTITLE1=Blues Stay Away From Me
TTITLE2=Shamus O´toole
TTITLE3=Just A Dream
TTITLE4=Divided City
TTITLE5=Doctor Feelgod
TTITLE6=Namenlos
TTITLE7=Funny Mae
TTITLE8=Ku´damm Promenade
TTITLE9=Memphis Tennessee
TTITLE10=Touch Me
TTITLE11=Walking Back To Happiness
TTITLE12=Karelia
TTITLE13=All Right
TTITLE14=Your Cheating Heart
TTITLE15=My Babe
TTITLE16=Cumberland Gap
TTITLE17=Dang Me
TTITLE18=Great Balls Of Fire
TTITLE19=Blues Stay Away From Me*
EXTD=
EXTT0=
EXTT1=
EXTT2=
EXTT3=
EXTT4=
EXTT5=
EXTT6=
EXTT7=
EXTT8=
EXTT9=
EXTT10=
EXTT11=
EXTT12=
EXTT13=
EXTT14=
EXTT15=
EXTT16=
EXTT17=
EXTT18=
EXTT19=
PLAYORDER=
